# AST/ASF file generated using VICON BodyLanguage
# -----------------------------------------------
:version 1.10
:name VICON
:units
  mass 1.0
  length 0.45
  angle deg
:documentation
   .ast/.asf automatically generated from VICON data using
   VICON BodyBuilder and BodyLanguage model FoxedUp or BRILLIANT.MOD
:root
   order TX TY TZ RX RY RZ
   axis XYZ
   position 0 0 0  
   orientation 0 0 0 
:bonedata
  begin
     id 1 
     name lhipjoint
     direction 0.535335 -0.74333 0.401095 
     length 2.04549 
     axis 0 0 0  XYZ
  end
  begin
     id 2 
     name lfemur
     direction 0.34202 -0.939693 0  
     length 6.95643  
     axis 0 0 20  XYZ
    dof rx ry rz
    limits (-160.0 20.0)
           (-70.0 70.0)
           (-60.0 70.0)
  end
  begin
     id 3 
     name ltibia
     direction 0.34192 -0.939729 0   
     length 5.55969   
     axis 0 0 20   XYZ
    dof rx
    limits (-10.0 170.0)
  end
  begin
     id 4 
     name lfoot
     direction 0.216943 -0.596046 0.773088   
     length 2.27918   
     axis -90 7.62852e-016 20   XYZ
    dof rx rz
    limits (-45.0 90.0)
           (-70.0 20.0)
  end
  begin
     id 5 
     name ltoes
     direction 1.53519e-011 -4.21748e-011 1   
     length 1.05562   
     axis -90 7.62852e-016 20   XYZ
    dof rx
    limits (-90.0 20.0)
  end
  begin
     id 6 
     name rhipjoint
     direction -0.576368 -0.719173 0.38806   
     length 2.1142  
     axis 0 0 0  XYZ 
  end
  begin
     id 7 
     name rfemur
     direction -0.34202 -0.939693 0   
     length 7.07928   
     axis 0 0 -20   XYZ
    dof rx ry rz
    limits (-160.0 20.0)
           (-70.0 70.0)
           (-70.0 60.0)
  end
  begin
     id 8 
     name rtibia
     direction -0.34202 -0.939693 0   
     length 5.79974   
     axis 0 0 -20   XYZ
    dof rx
    limits (-10.0 170.0)
 end
 begin
     id 9 
     name rfoot
     direction -0.189288 -0.520065 0.832888   
     length 2.42173  
     axis -90 -7.62852e-016 -20   XYZ
    dof rx rz
    limits (-45.0 90.0)
           (-20.0 70.0)
  end
  begin
     id 10 
     name rtoes
     direction -1.53574e-011 -4.21658e-011 1   
     length 1.14469   
     axis -90 -7.62852e-016 -20   XYZ
    dof rx
    limits (-90.0 20.0)
  end
  begin
     id 11 
     name lowerback
     direction -0.00135702 0.993803 0.111144   
     length 1.91308   
     axis 0 0 0   XYZ
    dof rx ry rz
    limits (-20.0 45.0)
           (-30.0 30.0)
           (-30.0 30.0)
  end
  begin
     id 12 
     name upperback
     direction -0.0056745 0.999813 0.0184631   
     length 1.9212   
     axis 0 0 0   XYZ
    dof rx ry rz
    limits (-20.0 45.0)
           (-30.0 30.0)
           (-30.0 30.0)
  end
  begin
     id 13 
     name thorax
     direction -0.00733434 0.999426 -0.0330788   
     length 1.94196   
     axis 0 0 0   XYZ
    dof rx ry rz
    limits (-20.0 45.0)
           (-30.0 30.0)
           (-30.0 30.0)
  end
  begin
     id 14 
     name lowerneck
     direction 0.0563074 0.996944 -0.0541571   
     length 2.34257   
     axis 0 0 0   XYZ
    dof rx ry rz
    limits (-20.0 45.0)
           (-30.0 30.0)
           (-30.0 30.0)
  end
  begin
     id 15 
     name upperneck
     direction -0.0544519 0.976166 -0.210085   
     length 2.32506   
     axis 0 0 0   XYZ
    dof rx ry rz
    limits (-20.0 45.0)
           (-30.0 30.0)
           (-30.0 30.0)
  end
  begin
     id 16
     name head
     direction -0.0226035 0.997615 -0.0652205  
     length 2.3648  
     axis 0 0 0   XYZ
    dof rx ry rz
    limits (-20.0 45.0)
           (-30.0 30.0)
           (-30.0 30.0)
  end
  begin
     id 17 
     name lclavicle
     direction 0.92109 0.381297 -0.0787716  
     length 4.0487  
     axis 0 0 0   XYZ
    dof ry rz
    limits (-20.0 10.0)
           (0.0 20.0)
  end
  begin
     id 18 
     name lhumerus
     direction 1 -4.48986e-011 3.56724e-027   
     length 4.94991   
     axis 180 -30 -90   XYZ
    dof rx ry rz
    limits (-60.0 90.0)
           (-90.0 90.0)
           (-90.0 90.0)
  end
  begin
     id 19
     name lradius
     direction 1 -4.48981e-011 8.62147e-027   
     length 2.7606   
     axis 180 -30 -90   XYZ
    dof rx
    limits (-10.0 170.0)
  end
  begin
     id 20
     name lwrist
     direction 1 -4.48989e-011 1.59799e-026   
     length 1.3803   
     axis -1.17785e-014 90 90   XYZ
    dof ry
    limits (-180.0 0.0)
 end
  begin
     id 21 
     name lhand
     direction 1 -4.48896e-011 3.19599e-026   
     length 0.843936   
     axis -2.03931e-014 90 90   XYZ
    dof rx rz
    limits (-90.0 90.0)
           (-45.0 45.0)
  end
  begin
     id 22 
     name lfingers
     direction 1 -4.48887e-011 6.39197e-026   
     length 0.680403   
     axis -4.07862e-014 90 90   XYZ
    dof rx
    limits (0.0 90.0)
  end
  begin
     id 23
     name lthumb
     direction 0.707107 -6.348e-011 0.707107   
     length 0.976926   
     axis -90 45 2.85299e-015   XYZ
    dof rx rz
    limits (-45.0 45.0)
           (-45.0 45.0)
  end
  begin
     id 24 
     name rclavicle
     direction -0.951104 0.307692 -0.026953   
     length 4.21801  
     axis 0 0 0   XYZ 
    dof ry rz
    limits (-10.0 20.0)
           (-20.0 0.0)
  end
  begin
     id 25 
     name rhumerus
     direction -1 -4.4896e-011 -1.8171e-018  
     length 4.32982   
     axis 180 30 90   XYZ
    dof rx ry rz
    limits (-90.0 60.0)
           (-90.0 90.0)
           (-90.0 90.0)
  end
  begin
     id 26 
     name rradius
     direction -1 -4.48959e-011 8.25165e-027   
     length 3.20057   
     axis 180 30 90   XYZ
    dof rx
    limits (-10.0 170.0)
  end
  begin
     id 27 
     name rwrist
     direction -1 -4.48997e-011 1.59799e-026   
     length 1.60029   
     axis -1.17785e-014 -90 -90   XYZ
    dof ry
    limits (-180.0 0.0)
  end
  begin
     id 28
     name rhand
     direction -1 -4.49023e-011 3.19599e-026   
     length 0.960433   
     axis -2.03931e-014 -90 -90   XYZ
    dof rx rz
    limits (-90.0 90.0)
           (-45.0 45.0)
  end
  begin
     id 29
     name rfingers
     direction -1 -4.48802e-011 6.39197e-026   
     length 0.774326   
     axis -4.07862e-014 -90 -90   XYZ
    dof rx
    limits (0.0 90.0)
  end
  begin
     id 30
     name rthumb
     direction -0.707107 -6.34876e-011 0.707107   
     length 1.11178   
     axis -90 -45 -2.85299e-015   XYZ
    dof rx rz
    limits (-45.0 45.0)
           (-45.0 45.0)
  end
:hierarchy
  begin
    root lhipjoint rhipjoint lowerback
    lhipjoint lfemur
    lfemur ltibia
    ltibia lfoot
    lfoot ltoes
    rhipjoint rfemur
    rfemur rtibia
    rtibia rfoot
    rfoot rtoes
    lowerback upperback
    upperback thorax
    thorax lowerneck lclavicle rclavicle
    lowerneck upperneck
    upperneck head
    lclavicle lhumerus
    lhumerus lradius
    lradius lwrist
    lwrist lhand lthumb
    lhand lfingers
    rclavicle rhumerus
    rhumerus rradius
    rradius rwrist
    rwrist rhand rthumb
    rhand rfingers
end

#!OML:ASF C:\KaitlinTest1\Natural Motions\Nikki\Session 2\Nikki.ASF
:FULLY-SPECIFIED
:DEGREES
585
root 0.896854 16.5522 5.01106 -144.696 84.2327 -155.932
lowerback -12.7323 -3.1627 0.782457
upperback -4.215 -4.11662 0.442357
thorax 2.67809 -1.96816 -0.581757
lowerneck 1.47894 -9.50617 -12.9063
upperneck 8.50908 42.7375 6.71326
head 170.755 60.075 -33.8565
rclavicle -3.92351e-014 -1.39149e-014
rhumerus -39.015 -18.4943 -81.9648
rradius 18.4534
rwrist 18.1726
rhand -37.3888 2.24761
rfingers 7.12502
rthumb -10.4497 -27.4727
lclavicle -3.92351e-014 -1.39149e-014
lhumerus -40.5983 18.4862 80.9018
lradius 21.1178
lwrist -34.6146
lhand -35.0158 4.96364
lfingers 7.12502
lthumb -8.16003 34.7861
rfemur -18.0638 -16.7594 22.7571
rtibia 26.0125
rfoot -16.5902 11.9677
rtoes -6.12257e-014
lfemur -21.7255 19.6428 -20.3354
ltibia 28.1032
lfoot -9.92822 -24.1475
ltoes -5.24792e-014
586
root 0.898948 16.5516 5.00896 -144.585 84.228 -155.836
lowerback -12.7876 -3.15575 0.789456
upperback -4.20348 -4.10876 0.443137
thorax 2.71977 -1.96377 -0.587294
lowerneck 1.40555 -9.52413 -12.8839
upperneck 8.5167 42.8152 6.73079
head 170.746 60.0048 -33.896
rclavicle 1.94312e-014 3.18055e-015
rhumerus -39.0044 -18.5692 -81.9203
rradius 18.4444
rwrist 18.2508
rhand -37.406 2.2348
rfingers 7.12502
rthumb -10.4664 -27.4847
lclavicle 1.94312e-014 3.18055e-015
lhumerus -40.5883 18.674 80.82
lradius 21.108
lwrist -34.9068
lhand -34.9566 4.96941
lfingers 7.12502
lthumb -8.10287 34.7941
rfemur -18.0583 -16.7716 22.7677
rtibia 25.9969
rfoot -16.6271 11.966
rtoes -3.10104e-014
lfemur -21.7564 19.742 -20.3494
ltibia 28.1254
lfoot -9.88683 -24.2262
ltoes -5.40694e-014
587
root 0.901672 16.5529 5.00693 -144.441 84.2189 -155.69
lowerback -12.7775 -3.1504 0.822512
upperback -4.22025 -4.10413 0.426997
thorax 2.69325 -1.96158 -0.620545
lowerneck 1.39497 -9.54188 -12.8484
upperneck 8.52081 42.8165 6.73815
head 170.689 60.0278 -33.945
rclavicle -5.25537e-014 -2.38542e-015
rhumerus -39.0597 -18.7325 -81.848
rradius 18.418
rwrist 18.3911
rhand -37.4405 2.3381
rfingers 7.12502
rthumb -10.4996 -27.3797
lclavicle -5.25537e-014 -2.38542e-015
lhumerus -40.6036 18.6024 80.8439
lradius 21.117
lwrist -34.8802
lhand -34.9334 5.00447
lfingers 7.12502
lthumb -8.0805 34.83
rfemur -18.0451 -16.771 22.7754
rtibia 25.9812
rfoot -16.5914 11.9563
rtoes -3.18055e-014
lfemur -21.7695 19.835 -20.359
ltibia 28.1408
lfoot -9.96982 -24.3413
ltoes -4.6118e-014
588
root 0.904 16.5518 5.00599 -144.282 84.2135 -155.53
lowerback -12.7884 -3.15863 0.804595
upperback -4.22337 -4.11317 0.443184
thorax 2.69826 -1.96578 -0.595636
lowerneck 1.36842 -9.53574 -12.8496
upperneck 8.51456 42.824 6.73678
head 170.686 60.0667 -33.9607
rclavicle -1.68718e-014 -5.1684e-015
rhumerus -39.0673 -18.6676 -81.8725
rradius 18.4485
rwrist 18.319
rhand -37.4271 2.27847
rfingers 7.12502
rthumb -10.4866 -27.44
lclavicle -1.68718e-014 -5.1684e-015
lhumerus -40.68 19.0639 80.4717
lradius 21.0487
lwrist -36.0291
lhand -34.6712 4.83604
lfingers 7.12502
lthumb -7.82747 34.6711
rfemur -18.0349 -16.7026 22.7811
rtibia 25.9778
rfoot -16.5643 11.8964
rtoes -1.11319e-014
lfemur -21.7545 19.8282 -20.3374
ltibia 28.139
lfoot -9.92748 -24.3082
ltoes -9.54166e-015
589
root 0.905683 16.5517 5.00347 -144.152 84.195 -155.448
lowerback -12.4161 -3.19384 0.811814
upperback -4.58347 -4.14117 0.486472
thorax 2.12318 -1.97965 -0.524228
lowerneck 1.72297 -9.43665 -12.9463
upperneck 8.76944 43.2056 6.91419
head 170.902 59.7722 -33.8203
rclavicle -3.08862e-014 -1.19271e-015
rhumerus -39.6497 -18.4442 -81.6951
rradius 18.513
rwrist 18.2506
rhand -37.4163 2.25518
rfingers 7.12502
rthumb -10.4762 -27.4638
lclavicle -3.08862e-014 -1.19271e-015
lhumerus -41.2899 19.0971 80.2904
lradius 21.1066
lwrist -36.1972
lhand -34.6333 4.77519
lfingers 7.12502
lthumb -7.79081 34.6117
rfemur -18.0765 -16.6468 22.7948
rtibia 25.976
rfoot -16.5379 11.8564
rtoes -8.74653e-015
lfemur -21.797 19.7859 -20.3403
ltibia 28.127
lfoot -9.91355 -24.2504
ltoes -1.59028e-015
590
root 0.907934 16.5533 4.99983 -144.401 84.2448 -155.722
lowerback -12.4517 -3.18148 0.776093
upperback -4.58575 -4.11976 0.467178
thorax 2.14143 -1.96851 -0.523302
lowerneck 1.67876 -9.44274 -12.9434
upperneck 8.7516 43.1987 6.9072
head 170.907 59.7985 -33.8312
rclavicle -4.12975e-014 -5.56597e-015
rhumerus -39.6274 -18.4235 -81.7126
rradius 18.5051
rwrist 18.1933
rhand -37.4326 2.17626
rfingers 7.12502
rthumb -10.492 -27.5419
lclavicle -4.12975e-014 -5.56597e-015
lhumerus -41.2585 19.0104 80.3669
lradius 21.1507
lwrist -36.1605
lhand -34.6115 4.79245
lfingers 7.12502
lthumb -7.76977 34.6297
rfemur -18.1043 -16.6354 22.7351
rtibia 25.9773
rfoot -16.4909 11.8749
rtoes -5.88403e-014
lfemur -21.7976 19.7664 -20.4041
ltibia 28.1175
lfoot -9.92172 -24.1998
ltoes 3.33958e-014
591
root 0.910525 16.5539 4.99792 -144.359 84.2355 -155.677
lowerback -12.4478 -3.17779 0.77376
upperback -4.5719 -4.11552 0.46849
thorax 2.15415 -1.96656 -0.520349
lowerneck 1.5954 -9.48471 -12.9012
upperneck 8.69932 43.1021 6.86002
head 170.723 59.9596 -33.9677
rclavicle 4.49502e-014 5.1684e-015
rhumerus -39.6113 -18.4711 -81.6887
rradius 18.4982
rwrist 18.2308
rhand -37.4562 2.2176
rfingers 7.12502
rthumb -10.5147 -27.4994
lclavicle 4.49502e-014 5.1684e-015
lhumerus -41.1856 18.9681 80.4265
lradius 21.1291
lwrist -36.1374
lhand -34.5627 4.7896
lfingers 7.12502
lthumb -7.72266 34.6286
rfemur -18.0777 -16.6129 22.7362
rtibia 25.9666
rfoot -16.5619 11.8204
rtoes -4.92986e-014
lfemur -21.7822 19.7643 -20.3932
ltibia 28.1154
lfoot -9.91146 -24.2103
ltoes -2.54444e-014
592
root 0.912899 16.5534 4.99558 -144.295 84.2305 -155.61
lowerback -12.4062 -3.17849 0.780882
upperback -4.62712 -4.11387 0.465412
thorax 2.07331 -1.96559 -0.522865
lowerneck 1.62185 -9.49776 -12.8713
upperneck 8.74566 43.1698 6.89182
head 170.623 59.9875 -34.0614
rclavicle 1.05853e-014 -2.78299e-015
rhumerus -39.7129 -18.5172 -81.6174
rradius 18.4583
rwrist 18.2591
rhand -37.4595 2.22405
rfingers 7.12502
rthumb -10.5179 -27.4928
lclavicle 1.05853e-014 -2.78299e-015
lhumerus -41.2955 18.5252 80.6881
lradius 21.3753
lwrist -35.6223
lhand -34.5716 4.8147
lfingers 7.12502
lthumb -7.73127 34.6534
rfemur -18.0476 -16.5845 22.7301
rtibia 25.9563
rfoot -16.5893 11.7803
rtoes 8.0309e-014
lfemur -21.7712 19.7521 -20.3857
ltibia 28.1196
lfoot -9.93439 -24.2056
ltoes 3.18055e-014
593
root 0.915742 16.5537 4.99445 -144.053 84.2366 -155.379
lowerback -12.4596 -3.17672 0.781622
upperback -4.60793 -4.11284 0.473487
thorax 2.12275 -1.96469 -0.518547
lowerneck 1.51836 -9.52049 -12.8208
upperneck 8.74254 43.2224 6.9015
head 170.512 60.0612 -34.192
rclavicle 5.71506e-016 -1.98785e-015
rhumerus -39.7107 -18.557 -81.5994
rradius 18.4891
rwrist 18.2831
rhand -37.472 2.18647
rfingers 7.12502
rthumb -10.53 -27.5298
lclavicle 5.71506e-016 -1.98785e-015
lhumerus -41.2715 18.9479 80.4241
lradius 21.2592
lwrist -36.2277
lhand -34.4822 4.64343
lfingers 7.12502
lthumb -7.64503 34.4852
rfemur -18.0356 -16.5108 22.7353
rtibia 25.9449
rfoot -16.5799 11.7215
rtoes -1.28017e-013
lfemur -21.7676 19.6984 -20.3564
ltibia 28.1335
lfoot -9.91657 -24.1233
ltoes -1.27222e-013
